<?xml version="1.0" encoding="utf-8"?>
<!-- Generator: Adobe Illustrator 25.2.1, SVG Export Plug-In . SVG Version: 6.00 Build 0)  -->
<svg version="1.1" id="Слой_1" xmlns="http://www.w3.org/2000/svg" xmlns:xlink="http://www.w3.org/1999/xlink" x="0px" y="0px"
	 viewBox="0 0 1024 1024" style="enable-background:new 0 0 1024 1024;" xml:space="preserve">
<path d="M950.9,1003.4l-58.1-718.9c-0.8-9.9-9.1-17.5-19-17.5H150.1c-9.9,0-18.2,7.6-19,17.5l-58.1,718.9
	c-0.9,11.1,7.9,20.6,19,20.6h839.9C943.1,1024,951.8,1014.5,950.9,1003.4z M313.4,492.2c-45,0-81.5-36.5-81.5-81.5
	s36.5-81.5,81.5-81.5s81.5,36.5,81.5,81.5S358.4,492.2,313.4,492.2z M712.6,492.2c-45,0-81.5-36.5-81.5-81.5s36.5-81.5,81.5-81.5
	c45,0,81.5,36.5,81.5,81.5S757.6,492.2,712.6,492.2z"/>
<path d="M716,450.5c-16.3,0-29.5-13.2-29.5-29.4v-189c0-95.5-77.7-173.2-173.2-173.2s-173.2,77.7-173.2,173.2v185.5
	c0,16.3-13.2,29.4-29.5,29.4c-16.3,0-29.5-13.2-29.5-29.4V232.1C281.3,104.1,385.4,0,513.4,0c128,0,232.1,104.1,232.1,232.1v189
	C745.5,437.3,732.3,450.5,716,450.5z"/>
</svg>
