<svg width="28" height="28" viewBox="0 0 28 28" fill="none" xmlns="http://www.w3.org/2000/svg">
<path d="M14 18.6667C15.9495 18.6667 17.5 17.1138 17.5 15.1667C17.5 13.2195 15.9495 11.6667 14 11.6667C12.0505 11.6667 10.5 13.2195 10.5 15.1667C10.5 17.1138 12.0505 18.6667 14 18.6667Z" fill="black"/>
<path d="M24.2865 13.0503C24.0116 11.7067 23.4744 10.4306 22.7057 9.29483C21.9503 8.17749 20.988 7.21515 19.8707 6.45983C18.7348 5.69138 17.4587 5.1542 16.1152 4.879C15.4094 4.73588 14.6909 4.66551 13.9708 4.66899V2.33333L9.33333 5.83333L13.9708 9.33333V7.00233C14.5355 6.99999 15.1002 7.05366 15.645 7.16566C16.6892 7.37964 17.681 7.79707 18.564 8.39416C19.4348 8.98128 20.1842 9.73072 20.7713 10.6015C21.6829 11.9493 22.169 13.5396 22.1667 15.1667C22.1665 16.2585 21.9483 17.3394 21.525 18.3458C21.3191 18.8306 21.0675 19.2947 20.7737 19.7318C20.4786 20.1663 20.1435 20.5721 19.7727 20.944C18.6433 22.0712 17.2096 22.8444 15.6473 23.1688C14.5608 23.3882 13.4415 23.3882 12.355 23.1688C11.3103 22.9546 10.318 22.5368 9.43483 21.9392C8.56506 21.3526 7.81643 20.6039 7.22983 19.7342C6.31931 18.385 5.83299 16.7943 5.83333 15.1667H3.5C3.50124 17.2593 4.12637 19.3041 5.2955 21.0397C6.05132 22.1552 7.01267 23.1165 8.12817 23.8723C9.86139 25.0454 11.9071 25.6705 14 25.6667C14.7108 25.6666 15.4198 25.5951 16.1163 25.4532C17.4588 25.1759 18.7342 24.6389 19.8707 23.8723C20.4287 23.4963 20.9487 23.0669 21.4235 22.5902C21.8989 22.1134 22.3286 21.5931 22.7068 21.0362C23.8789 19.3034 24.5036 17.2586 24.5 15.1667C24.4999 14.4558 24.4284 13.7468 24.2865 13.0503V13.0503Z" fill="black"/>
</svg>