<svg width="21" height="21" viewBox="0 0 21 21" fill="none" xmlns="http://www.w3.org/2000/svg">
<path d="M10.5 15.4629C12.3348 15.4629 13.8223 13.9755 13.8223 12.1406C13.8223 10.3058 12.3348 8.81836 10.5 8.81836C8.66516 8.81836 7.17773 10.3058 7.17773 12.1406C7.17773 13.9755 8.66516 15.4629 10.5 15.4629Z" fill="#27C48B"/>
<path d="M15.352 3.73242L15.1397 2.67081C15.0251 2.09766 14.5176 1.68164 13.9331 1.68164H7.06684C6.48237 1.68164 5.97488 2.09766 5.86029 2.67081L5.64795 3.73242H15.352Z" fill="#27C48B"/>
<path d="M19.1543 4.96289C17.7096 4.96289 2.5218 4.96289 1.8457 4.96289C0.827982 4.96289 0 5.79087 0 6.80859V17.4727C0 18.4904 0.827982 19.3184 1.8457 19.3184H19.1543C20.172 19.3184 21 18.4904 21 17.4727V6.80859C21 5.79087 20.172 4.96289 19.1543 4.96289ZM5.25 8.81836H3.28125C2.94148 8.81836 2.66602 8.5429 2.66602 8.20312C2.66602 7.86335 2.94148 7.58789 3.28125 7.58789H5.25C5.58977 7.58789 5.86523 7.86335 5.86523 8.20312C5.86523 8.5429 5.58977 8.81836 5.25 8.81836ZM10.5 16.6934C7.9896 16.6934 5.94727 14.651 5.94727 12.1406C5.94727 9.63022 7.9896 7.58789 10.5 7.58789C13.0104 7.58789 15.0527 9.63022 15.0527 12.1406C15.0527 14.651 13.0104 16.6934 10.5 16.6934Z" fill="#27C48B"/>
</svg>
