<svg width="88" height="52" viewBox="0 0 88 52" fill="none" xmlns="http://www.w3.org/2000/svg">
<g clip-path="url(#clip0)">
<path d="M0.313599 3.10817C1.41164 2.00114 2.74497 2.63373 3.92144 2.63373C18.6665 2.55465 33.4116 2.55465 48.1567 2.63373C50.745 2.63373 53.3332 2.31743 55.843 1.60577C70.1175 -2.427 84.941 6.50834 87.4508 21.2161C90.745 40.1147 75.4509 51.5804 63.3724 51.4223C56.3136 51.3432 50.3528 49.2873 45.3332 44.3847C43.9214 42.9614 41.5685 42.4869 40.7842 40.3519C38.9803 37.7425 38.0391 34.7377 36.4705 32.0492C37.2548 30.2305 36.6273 28.4118 36.6273 26.514C36.5489 26.1977 36.5489 25.8814 36.4705 25.5651C35.5293 24.0627 34.0391 24.8535 32.7842 24.6953C30.4312 24.379 27.7646 25.6442 25.7254 23.272C26.5881 21.4533 28.3136 21.9277 29.7254 21.7696C31.843 21.5324 34.1175 22.165 36.1567 21.137C37.5685 19.7927 37.6469 18.0531 37.8822 16.3926C37.8822 15.9972 37.9607 15.6809 38.0391 15.2855C38.4312 14.2576 39.5293 13.7041 39.9999 12.7552C40.1567 12.4389 40.392 12.2017 40.6273 11.8854C42.3528 9.90851 43.6861 7.5363 45.8038 5.95482C46.3528 5.55946 46.9803 5.24316 47.4508 4.84779C47.6077 4.45242 48.6273 4.45242 47.843 3.81983C42.745 4.61057 37.7254 4.13613 32.7058 4.13613C23.5293 4.2152 14.2744 4.2152 5.09791 4.13613C3.37242 4.13613 1.64693 4.45242 0.313599 3.10817Z" fill="#393939"/>
<path d="M40.7842 13.3878C40.392 14.4948 39.6077 15.0483 38.4312 14.9693C37.0195 16.2344 35.294 15.9972 33.6469 16.0763C28.9411 16.2344 24.1567 15.6019 19.4509 16.3926C17.5685 18.6067 19.7646 19.2393 20.9411 20.2672C22.4312 21.5324 24.8626 20.8207 25.9607 22.8766C28.4705 24.5372 31.2156 23.272 33.8038 23.6674C34.196 24.0628 34.2744 24.6163 34.1175 25.0907C33.5685 26.0396 32.3136 25.8814 31.7646 26.7513C32.0783 29.9142 35.5293 29.7561 36.9411 31.7329C36.7842 33.2353 38.1175 33.0772 39.1371 33.6307C38.745 36.0029 41.1763 37.8216 40.7842 40.352C38.8234 40.2729 37.8038 38.7705 37.0195 37.3471C36.3136 36.082 35.5293 35.2122 34.2744 34.8168C29.9607 33.5516 27.0587 30.9422 26.0391 26.435C20.3136 24.7744 14.5881 23.1929 13.0979 16.3135C6.82341 14.8902 0.784189 13.3087 0.156738 5.40134C0.392032 4.05709 1.09791 3.4245 2.58811 3.4245C18.1175 3.58264 33.5685 3.18727 49.0979 3.66172C49.2548 3.66172 49.3332 3.74079 49.4116 3.81986C49.1763 4.6106 48.6273 5.16412 47.843 5.40134C45.6469 6.35023 43.3724 6.50837 41.0195 6.50837C29.5685 6.58745 18.1175 6.35023 6.74497 6.7456C4.78419 7.85263 6.43125 8.48522 7.13713 9.19688C8.62733 10.6202 10.9803 10.6202 12.392 12.2017C20.1567 12.4389 27.843 12.2017 35.6077 12.2808C37.4116 12.2808 39.294 11.9645 40.7842 13.3878Z" fill="#3D3D40"/>
<path d="M49.4117 3.89889C33.5685 3.89889 17.647 3.89889 2.03912 3.89889C0.862654 3.97797 0.862654 5.085 0.156772 5.40129C-0.0785223 4.61056 -0.156954 3.81982 0.235203 3.10815C16.9411 3.10815 33.647 3.10815 50.3529 3.10815C50.5097 3.97797 49.8823 3.74074 49.4117 3.89889Z" fill="#343338"/>
<path d="M79.2941 40.431C74.1176 47.5476 62.2745 50.3152 54.9803 46.5197C53.8823 44.6219 55.4509 43.9893 56.549 43.1986C57.8039 42.3288 59.2156 41.6171 59.6078 39.9565C59.9215 38.8495 60.4705 37.8215 60.1568 36.2401C54.9019 33.7097 51.2156 28.4908 45.098 26.9884C43.5294 25.407 43.6862 23.272 43.6078 21.2951C43.9999 19.7927 45.1764 19.7137 46.3529 19.7137C47.9999 20.03 48.3921 18.7648 48.9411 17.6577C49.647 16.4716 51.0588 16.3926 52.0784 15.76C52.1568 15.2855 51.7647 15.1274 51.6078 14.8111C52.549 12.4389 55.5294 11.8854 56.2352 9.35499C56.6274 8.95963 57.1764 8.80148 57.7254 8.7224C58.4313 8.7224 59.1372 8.95963 59.7646 9.27592C60.0784 9.43407 60.3137 9.59222 60.549 9.82944C62.4313 10.5411 62.4313 8.80148 62.9803 7.93167C63.4509 6.82463 63.4509 5.48038 64.3921 4.53149C65.7254 5.08501 67.5294 4.37335 68.6274 6.0339C68.7843 6.27112 68.8627 5.40131 69.2548 5.32223C69.4901 5.40131 69.8039 5.48038 70.0392 5.55945C70.9019 6.50834 71.0588 7.69444 71.2156 8.88055C71.0588 10.0667 71.7646 11.0946 71.9215 12.2807C71.6862 14.5739 70.9803 16.867 72.0784 19.1601C72.2352 20.2672 71.9999 21.3742 71.2941 22.0859C68.1568 25.3279 68.8627 28.649 70.8235 32.0492C71.5294 34.026 73.0196 34.5005 74.8235 34.3423C76.1568 34.1842 77.4117 34.2632 78.2745 35.5284C78.9019 37.0308 79.4509 38.6123 79.2941 40.431Z" fill="#77D387"/>
<path d="M69.8822 32.2073C69.0195 30.3886 68.2352 28.4909 67.5293 26.9094C67.7646 23.5092 71.5293 22.244 71.3724 18.923C71.6077 18.6067 71.9215 18.3694 72.3136 18.2113C75.3724 17.895 78.5097 17.8159 81.3332 16.0763C81.7254 16.0763 82.1175 16.2344 82.4313 16.4717C86.5881 25.1698 85.2548 33.0772 79.294 40.3519C78.0391 38.9286 77.9607 37.189 77.8038 35.4494C77.4117 33.6307 76.0783 33.8679 74.745 33.947C72.8626 34.1051 70.9803 34.026 69.8822 32.2073Z" fill="#FDFDFD"/>
<path d="M11.843 12.5179C8.94109 11.49 6.19599 10.3829 4.2352 7.85258C3.99991 7.21999 4.07834 6.5874 4.78422 6.19203C12.7058 5.40129 20.5489 5.9548 28.4705 5.87573C34.4313 5.87573 40.3921 5.32221 46.2744 6.19203C44.5489 8.40609 42.9803 10.8574 40.7842 12.597C31.1372 12.9924 21.4901 13.3087 11.843 12.5179Z" fill="#98D779"/>
<path d="M45.4117 26.8303C49.2549 27.5419 53.0196 28.4118 55.2941 32.1282C56.6274 34.3423 59.3725 34.1841 61.4902 35.3703C61.3333 37.0308 61.1765 38.6123 60.3921 40.1147C58.4314 42.4869 55.2941 43.4358 53.3333 45.8871C52 45.4917 50.9019 44.701 50.0392 43.5149C47.0588 38.6123 43.3725 34.026 44.0784 27.7792C44.3137 27.2257 44.6274 26.6721 45.4117 26.8303Z" fill="#FDFEFD"/>
<path d="M25.8822 22.7975C24.0783 22.244 22.1959 21.8487 20.4704 21.0579C18.4312 20.109 16.8626 18.5276 17.2547 15.9181C24.3136 14.8902 31.3724 15.2855 38.4312 15.76C39.5293 16.3135 39.294 17.2624 38.9018 18.0531C38.1959 19.4764 38.6665 21.2161 36.7842 22.8766C33.6469 22.7975 29.7253 22.7975 25.8822 22.7975Z" fill="#95D578"/>
<path d="M56.5489 9.51315C56.5489 10.3039 56.5489 11.0156 56.5489 11.9644C54.9803 12.9133 53.3332 13.9413 51.7646 14.8902C51.5293 16.5507 49.4901 16.1553 48.9411 17.4996C48.4705 18.4485 48.1568 19.4764 47.0587 19.8718C45.7254 19.4764 44.3921 19.0811 43.0587 19.9509C42.6666 19.9509 42.3528 19.7927 42.1176 19.5555C43.2156 13.7041 46.745 9.75037 51.7646 6.98279C53.647 7.22001 56.1568 6.27112 56.5489 9.51315Z" fill="#FBFCFB"/>
<path d="M72.2351 18.8438C71.9214 18.8438 71.6861 18.8438 71.3724 18.8438C70.4312 18.4484 70.3528 17.4205 69.7253 16.5507C70.9018 15.2855 70.1959 13.1505 71.6077 11.8853C71.7646 10.7783 70.1175 10.6201 70.4312 9.43404C69.9606 8.16886 69.4116 6.90367 69.8822 5.48035C76.0783 6.8246 79.843 10.9364 82.3528 16.4716C82.0391 16.4716 81.7253 16.4716 81.4901 16.4716C79.3724 15.9972 77.2548 16.2344 75.1371 16.3925C73.9606 17.0251 73.4116 18.2903 72.2351 18.8438Z" fill="#F9FBF9"/>
<path d="M44.6274 27.7792C44.4705 30.9421 45.4901 33.7097 47.1372 36.3191C48.5489 38.5332 49.1764 41.1426 50.0391 43.5939C44.0783 40.1147 41.7254 34.5004 40.8626 28.0164C40.7058 26.8303 40.8627 25.6442 40.9411 24.4581C41.8038 23.5882 42.8234 24.4581 43.7646 24.2208C44.8627 25.2488 44.1568 26.6721 44.6274 27.7792Z" fill="#75CD86"/>
<path d="M36.8627 31.6539C33.9607 31.5748 32.0784 29.677 30.4313 27.542C29.9607 26.9094 30.0391 26.435 30.6666 25.9605C33.0195 25.9605 35.3725 24.1419 37.647 26.0396C37.8039 27.7792 37.647 29.5189 38.196 31.1794C37.5686 31.4166 37.2548 31.5748 36.8627 31.6539Z" fill="#B1E27B"/>
<path d="M46.2744 6.27111C32.3921 6.27111 18.5882 6.27111 4.70581 6.19204C5.64699 4.84778 7.13718 5.48037 8.31365 5.48037C21.4901 5.4013 34.6666 5.48037 47.8431 5.48037C47.6078 6.19204 46.9019 6.19204 46.2744 6.27111Z" fill="#313133"/>
<path d="M11.843 12.5179C21.4901 12.597 31.1372 12.597 40.7842 12.6761C40.7842 12.9133 40.7842 13.1505 40.7842 13.3878C30.745 13.3878 20.7842 13.3878 10.745 13.3878C10.745 12.4389 11.3724 12.6761 11.843 12.5179Z" fill="#333334"/>
<path d="M60.3921 10.3039C60.1568 10.2248 59.843 10.2248 59.6077 10.2248C59.2156 8.08984 58.4313 5.87578 60.3921 4.05708C61.4117 3.89893 62.4313 3.81986 63.3725 4.13615C63.7646 4.13615 63.9999 4.37338 64.0783 4.76874C64.3921 6.113 64.3136 7.29911 63.3725 8.40614C62.745 9.4341 61.8823 10.383 60.3921 10.3039Z" fill="#F0F6F1"/>
<path d="M56.549 9.51317C56.1568 8.72243 55.6078 7.6154 54.6666 8.08984C53.1764 8.88058 52.7843 7.22003 51.7646 7.06188C52.7843 5.87577 54.1176 5.48041 55.6078 5.32226C56.7058 4.92689 57.8039 5.00596 58.745 5.32226C59.9999 7.14095 59.1372 8.32706 57.9607 9.35502C57.4901 9.43409 57.0195 9.43409 56.549 9.51317Z" fill="#E2ECE4"/>
<path d="M38.4314 15.681C31.3725 15.76 24.3137 15.8391 17.2549 15.8391C17.8823 14.2576 19.2157 14.8902 20.2353 14.8902C26.2745 14.8111 32.3137 14.8902 38.3529 14.8902C38.4314 15.2065 38.4314 15.4437 38.4314 15.681Z" fill="#39383B"/>
<path d="M53.3334 45.8871C54.4314 42.4079 57.4902 41.3799 60.3922 40.1147C60.4706 42.2497 58.8236 42.9614 57.3334 43.7521C56.1569 44.3847 54.8236 44.7801 54.9804 46.4407C54.353 46.5197 53.6471 46.6779 53.3334 45.8871Z" fill="#6EB47C"/>
<path d="M44.6274 27.7792C43.2941 26.9885 44.3921 25.1698 43.2156 24.3791C41.8823 23.7465 40.7843 23.0348 41.4901 21.2161C41.647 20.6626 41.4901 19.9509 42.1176 19.6346C42.4313 19.6346 42.745 19.7137 43.0588 19.7137C43.7646 19.9509 43.4509 20.8208 43.9215 21.2161C45.647 22.7976 43.9999 25.2489 45.4117 26.9094C44.9411 26.9885 44.7058 27.3048 44.6274 27.7792Z" fill="#EEF7F0"/>
<path d="M58.0392 9.35495C58.0392 8.24792 59.2157 7.37811 58.6667 6.11293C57.9608 4.84774 56.7059 5.55941 55.6863 5.32219C57.1765 4.3733 58.8235 4.3733 60.4706 4.05701C59.8431 6.03385 60.549 8.24792 59.6863 10.2248C59.0588 9.90847 58.5882 9.67125 58.0392 9.35495Z" fill="#8BCF98"/>
<path d="M64.1567 4.68968C63.9214 4.45246 63.6861 4.29431 63.4508 4.05709C65.49 3.81987 67.2939 4.45246 69.0979 5.2432C69.0194 5.87579 69.0194 6.50838 69.0194 7.14097C67.843 7.22004 68.5488 5.87579 67.1371 5.55949C66.5881 5.40134 65.4116 5.08505 64.1567 4.68968Z" fill="#6CCD7F"/>
<path d="M33.7255 25.1697C33.7255 24.6162 33.7255 24.1418 33.7255 23.5882C35.0588 24.0627 37.2549 22.4021 37.647 25.1697C36.3921 25.8023 35.0588 25.8023 33.7255 25.1697Z" fill="#3F3D41"/>
<path d="M33.7254 25.1698C35.0588 25.1698 36.3137 25.1698 37.647 25.1698C37.647 25.4861 37.647 25.7233 37.647 26.0396C35.2941 26.0396 32.9411 25.9605 30.6666 25.9605C31.4509 24.6163 32.7058 25.407 33.7254 25.1698Z" fill="#353336"/>
<path d="M41.4901 21.2161C41.4901 22.5603 42.5881 23.3511 43.2156 24.379C42.5097 25.7233 41.647 23.9836 40.9411 24.4581C40.8627 23.3511 40.3921 22.165 41.4901 21.2161Z" fill="#62AF71"/>
<path d="M69.8823 32.2073C72.1568 33.2352 74.5882 33.2352 76.8627 32.9189C77.9608 33.7097 78.7451 34.3423 77.8039 35.5284C76.8627 35.133 76.1568 34.8958 74.9804 35.2121C72.1568 35.9237 70.9019 35.0539 69.8823 32.2073Z" fill="#66B075"/>
<path d="M48.549 17.1833C48.549 14.9692 50.9804 15.9972 51.6862 14.8901C52.6274 14.9692 53.7255 14.6529 54.5882 16.1553C52.8627 16.867 50.7451 16.7088 49.4117 18.1322C48.7059 18.2903 48.3137 18.0531 48.549 17.1833Z" fill="#61AE70"/>
<path d="M43.9215 21.137C42.9019 21.0579 43.1371 20.2672 43.0587 19.6346C43.6077 18.9229 44.0783 18.1322 45.7254 17.895C46.2744 17.8159 46.1175 19.3974 47.0587 19.5555C47.294 19.8718 47.294 20.109 47.0587 20.4253C46.0391 20.6625 44.7842 19.9509 43.9215 21.137Z" fill="#70B87F"/>
<path d="M47.0587 20.5044C47.0587 20.1881 47.0587 19.8718 47.0587 19.6345C47.6862 18.9229 47.7646 17.8158 48.6273 17.2623C48.7842 17.7368 49.0195 18.0531 49.4901 18.1321C49.5685 19.3182 48.8626 20.1881 48.3136 21.0579C47.6077 21.216 47.294 20.9788 47.0587 20.5044Z" fill="#70CA81"/>
<path d="M60.392 10.3038C61.4116 9.67123 62.0391 8.32698 63.4508 8.40605C62.745 9.98753 62.745 9.98753 60.0783 12.2807C59.1371 11.4109 60.392 10.9364 60.392 10.3038Z" fill="#64B073"/>
<path d="M70.4313 9.43408C71.0588 10.1457 71.6862 10.8574 72.6274 11.1737C72.4705 11.8063 71.9999 11.8063 71.5293 11.8854C70.8235 11.2528 69.098 11.0946 70.4313 9.43408Z" fill="#6CB37A"/>
<path d="M72.2352 18.8438C72.7058 17.4205 73.4117 16.0763 74.5097 14.5739C76.4705 16.7879 79.6862 13.3877 81.4901 16.4716C80.4705 17.2624 79.4509 18.1322 78.5882 18.8438C76.3921 18.8438 74.2744 18.8438 72.2352 18.8438Z" fill="#73C283"/>
</g>
<defs>
<clipPath id="clip0">
<rect width="88" height="50.8444" fill="white" transform="translate(0 0.577759)"/>
</clipPath>
</defs>
</svg>
