<svg width="22" height="20" viewBox="0 0 22 20" fill="none" xmlns="http://www.w3.org/2000/svg">
<rect x="0.985352" width="21" height="20" rx="6" fill="#E6DCFF"/>
<path d="M16.4437 5.83332H14.51L14.1383 4.34695C14.0872 4.14303 13.9039 4 13.6937 4H9.11036C8.90014 4 8.71687 4.14303 8.66577 4.34695L8.29406 5.83332H6.36035C5.60096 5.83332 4.98535 6.44893 4.98535 7.20832V13.625C4.98535 14.3844 5.60096 15 6.36035 15H16.4437C17.2031 15 17.8187 14.3844 17.8187 13.625V7.20832C17.8187 6.44893 17.2031 5.83332 16.4437 5.83332ZM11.402 12.7083C10.1364 12.7083 9.11036 11.6823 9.11036 10.4167C9.11036 9.15103 10.1364 8.12501 11.402 8.12501C12.6677 8.12501 13.6937 9.15103 13.6937 10.4167C13.6922 11.6817 12.6671 12.7068 11.402 12.7083Z" fill="#9152D5"/>
</svg>
