<svg width="35" height="34" viewBox="0 0 35 34" fill="none" xmlns="http://www.w3.org/2000/svg">
<path d="M7.58805 24.6238C8.18195 24.6238 8.66341 24.1451 8.66341 23.5545C8.66341 22.964 8.18195 22.4852 7.58805 22.4852C6.99415 22.4852 6.5127 22.964 6.5127 23.5545C6.5127 24.1451 6.99415 24.6238 7.58805 24.6238Z" fill="#EC9E43"/>
<path d="M15.5855 28.2986C16.3428 28.2986 17.0092 27.892 17.3727 27.3046C16.0096 26.9281 14.7373 26.3709 13.556 25.6479C13.5105 25.8287 13.4802 26.0094 13.4802 26.2052C13.4954 27.3648 14.4344 28.2986 15.5855 28.2986Z" fill="#EC9E43"/>
<path d="M2.46819 19.3231C3.40505 19.3231 4.16452 18.5679 4.16452 17.6364C4.16452 16.7048 3.40505 15.9496 2.46819 15.9496C1.53133 15.9496 0.771851 16.7048 0.771851 17.6364C0.771851 18.5679 1.53133 19.3231 2.46819 19.3231Z" fill="#EC9E43"/>
<path d="M18.9323 27.6357C18.3719 28.9159 17.0845 29.8195 15.5851 29.8195C13.5707 29.8195 11.9501 28.193 11.9501 26.205C11.9501 25.6929 12.0561 25.1959 12.253 24.7441C11.4503 24.1266 10.693 23.4188 10.0266 22.6507C10.1326 22.9369 10.1932 23.2381 10.1932 23.5543C10.1932 24.9851 9.02693 26.1598 7.57293 26.1598C6.13407 26.1598 4.9527 25.0001 4.9527 23.5543C4.9527 22.1236 6.11893 20.9489 7.57293 20.9489C8.13333 20.9489 8.64828 21.1296 9.07237 21.4308C7.40632 19.0362 6.43699 16.1446 6.43699 13.012C6.43699 11.3854 6.69447 9.81915 7.19428 8.35828C4.3923 9.69866 2.181 11.9879 0.984481 14.7741C3.12005 13.6897 5.69484 15.2259 5.69484 17.6356C5.69484 19.4127 4.24084 20.8434 2.46877 20.8434C1.48429 20.8434 0.605834 20.4067 0 19.7139C0.0151459 25.0303 3.27151 29.9099 8.01216 32.0334C13.707 34.5937 20.3106 32.5455 23.8244 27.6207C23.0217 27.7562 22.2038 27.8165 21.3557 27.8165C20.5378 27.8315 19.7199 27.7713 18.9323 27.6357Z" fill="#EC9E43"/>
<path d="M15.7962 17.6054C16.3901 17.6054 16.8715 17.1266 16.8715 16.5361C16.8715 15.9455 16.3901 15.4668 15.7962 15.4668C15.2023 15.4668 14.7208 15.9455 14.7208 16.5361C14.7208 17.1266 15.2023 17.6054 15.7962 17.6054Z" fill="#EC9E43"/>
<path d="M23.7924 21.2807C24.9551 21.2807 25.8977 20.3434 25.8977 19.1873C25.8977 18.0311 24.9551 17.0939 23.7924 17.0939C22.6297 17.0939 21.6871 18.0311 21.6871 19.1873C21.6871 20.3434 22.6297 21.2807 23.7924 21.2807Z" fill="#EC9E43"/>
<path d="M19.902 10.663C20.4959 10.663 20.9774 10.1843 20.9774 9.59371C20.9774 9.00316 20.4959 8.52441 19.902 8.52441C19.3081 8.52441 18.8267 9.00316 18.8267 9.59371C18.8267 10.1843 19.3081 10.663 19.902 10.663Z" fill="#EC9E43"/>
<path d="M10.6774 12.3047C11.6143 12.3047 12.3737 11.5495 12.3737 10.6179C12.3737 9.68635 11.6143 8.93115 10.6774 8.93115C9.74055 8.93115 8.98108 9.68635 8.98108 10.6179C8.98108 11.5495 9.74055 12.3047 10.6774 12.3047Z" fill="#EC9E43"/>
<path d="M29.1856 15.1057C29.1856 12.44 32.0028 10.693 34.3958 11.8376C34.2746 10.693 33.9869 9.5333 33.5325 8.37364C33.3356 7.87665 32.7146 7.72604 32.3057 8.07243C32.0179 8.3134 31.5181 8.25316 31.3515 7.93689C31.1546 7.56038 30.6851 7.42483 30.3216 7.62062C29.4128 8.10256 28.2617 7.65074 27.9285 6.65675C27.8074 6.28023 27.4136 6.05433 27.0349 6.14469C25.9747 6.3706 24.9751 5.57239 24.9751 4.50309C24.9751 4.0814 25.1265 3.68983 25.4143 3.37356C25.8384 2.89162 25.5203 2.13859 24.8842 2.09341C24.5056 2.07835 24.2178 1.73196 24.3995 1.44581C24.6722 0.993994 24.4147 0.406634 23.8846 0.30121C23.097 0.150605 22.2488 0 21.3401 0C15.7967 0 11.1469 3.19283 9.1931 7.75616C11.3287 6.67181 13.9035 8.20798 13.9035 10.6177C13.9035 12.3948 12.4495 13.8256 10.6774 13.8256C9.69291 13.8256 8.81445 13.3888 8.20862 12.696C8.22376 18.0124 11.4801 22.892 16.2208 25.0155C22.6123 27.877 30.1398 24.9553 33.169 18.7052C31.0334 18.916 29.1856 17.2292 29.1856 15.1057ZM19.9012 7.00314C21.3401 7.00314 22.5215 8.1628 22.5215 9.60861C22.5215 11.0544 21.3552 12.2141 19.9012 12.2141C18.4624 12.2141 17.281 11.0544 17.281 9.60861C17.281 8.1628 18.4624 7.00314 19.9012 7.00314ZM15.7967 13.931C17.2356 13.931 18.4169 15.0906 18.4169 16.5364C18.4169 17.9823 17.2507 19.1419 15.7967 19.1419C14.3578 19.1419 13.1765 17.9823 13.1765 16.5364C13.1765 15.0906 14.3578 13.931 15.7967 13.931ZM23.7937 22.8016C21.7793 22.8016 20.1587 21.1751 20.1587 19.1871C20.1587 17.184 21.7945 15.5726 23.7937 15.5726C25.793 15.5726 27.4287 17.1991 27.4287 19.1871C27.4439 21.1751 25.8081 22.8016 23.7937 22.8016Z" fill="#EC9E43"/>
<path d="M32.821 13.0125C31.6547 13.0125 30.7157 13.9462 30.7157 15.1059C30.7157 16.7173 32.4878 17.7264 33.8812 16.9131C34.1992 15.9041 34.381 14.8498 34.4416 13.7805C34.0629 13.3137 33.4722 13.0125 32.821 13.0125Z" fill="#EC9E43"/>
</svg>
