<svg width="31" height="31" viewBox="0 0 31 31" fill="none" xmlns="http://www.w3.org/2000/svg">
<path d="M24.8224 17.8964C24.8224 14.7282 28.1593 12.6731 31.0011 14.0217C30.8504 12.6731 30.5059 11.303 29.9677 9.91154C29.7309 9.33355 28.9989 9.14088 28.5253 9.54762C28.1809 9.84732 27.5996 9.76169 27.4058 9.39777C27.169 8.96962 26.6308 8.79836 26.1787 9.01244C25.1023 9.56903 23.746 9.05525 23.3369 7.85645C23.1862 7.4069 22.7341 7.15001 22.282 7.25705C21.0119 7.53534 19.8493 6.57202 19.8493 5.30899C19.8493 4.81662 20.0215 4.34566 20.366 3.98174C20.8827 3.42515 20.4952 2.50464 19.7417 2.46183C19.2896 2.44042 18.9666 2.03368 19.1604 1.69117C19.4833 1.15599 19.1604 0.470958 18.5576 0.342515C17.6319 0.14985 16.62 0 15.5436 0C8.9774 0 3.4661 3.78908 1.16255 9.1837C3.68138 7.89926 6.73844 9.71888 6.73844 12.566C6.73844 14.6639 5.01615 16.3765 2.90635 16.3765C1.74381 16.3765 0.688913 15.8627 0 15.0279C0.0215285 21.3216 3.87514 27.1015 9.49409 29.6276C17.0506 33.0099 25.9634 29.5634 29.5587 22.1565C26.9968 22.392 24.8224 20.4011 24.8224 17.8964ZM13.8213 8.28459C15.5221 8.28459 16.9214 9.67606 16.9214 11.3672C16.9214 13.0584 15.5221 14.4499 13.8213 14.4499C12.1206 14.4499 10.7212 13.0584 10.7212 11.3672C10.7212 9.67606 12.1206 8.28459 13.8213 8.28459ZM8.95587 16.505C10.6566 16.505 12.056 17.8964 12.056 19.5876C12.056 21.2788 10.6566 22.6702 8.95587 22.6702C7.25512 22.6702 5.85576 21.2788 5.85576 19.5876C5.87729 17.8964 7.25512 16.505 8.95587 16.505ZM18.4284 27.0159C16.0603 27.0159 14.1227 25.0893 14.1227 22.7345C14.1227 20.3797 16.0603 18.453 18.4284 18.453C20.7966 18.453 22.7341 20.3797 22.7341 22.7345C22.7557 25.0893 20.8181 27.0159 18.4284 27.0159Z" fill="#5C4B98"/>
</svg>
