<svg width="32" height="31" viewBox="0 0 32 31" fill="none" xmlns="http://www.w3.org/2000/svg">
<path d="M26.3052 16.0277H25.7583V15.4839C25.7583 14.9808 25.3482 14.573 24.8423 14.573C24.3364 14.573 23.9263 14.9808 23.9263 15.4839V16.0277H23.3794C22.8735 16.0277 22.4634 16.4355 22.4634 16.9385C22.4634 17.4415 22.8735 17.8494 23.3794 17.8494H23.9263V18.3932C23.9263 18.8962 24.3364 19.304 24.8423 19.304C25.3482 19.304 25.7583 18.8962 25.7583 18.3932V17.8494H26.3052C26.8111 17.8494 27.2212 17.4415 27.2212 16.9385C27.2212 16.4355 26.8111 16.0277 26.3052 16.0277Z" fill="#3B6FBC"/>
<path d="M4.83961 3.27637H5.38649V3.82017C5.38649 4.32318 5.79665 4.73103 6.30251 4.73103C6.80837 4.73103 7.21853 4.32318 7.21853 3.82017V3.27637H7.76541C8.27128 3.27637 8.68143 2.86853 8.68143 2.36551C8.68143 1.8625 8.27128 1.45466 7.76541 1.45466H7.21853V0.910859C7.21853 0.407847 6.80837 0 6.30251 0C5.79665 0 5.38649 0.407847 5.38649 0.910859V1.45466H4.83961C4.33374 1.45466 3.92358 1.8625 3.92358 2.36551C3.92358 2.86853 4.33374 3.27637 4.83961 3.27637Z" fill="#3B6FBC"/>
<path d="M8.02547 15.8517C8.39461 15.7429 8.66806 15.3894 8.66806 14.9816C8.66806 14.5737 8.39461 14.2339 8.02547 14.1115C6.71296 13.6629 5.66022 12.6297 5.20904 11.311C5.09966 10.9439 4.74419 10.672 4.33403 10.672C3.92387 10.672 3.58207 10.9439 3.45902 11.311C3.00785 12.6161 1.96877 13.6629 0.642586 14.1115C0.273442 14.2203 0 14.5737 0 14.9816C0 15.3894 0.273442 15.7293 0.642586 15.8517C1.9551 16.3003 3.00785 17.3335 3.45902 18.6522C3.5684 19.0193 3.92387 19.2912 4.33403 19.2912C4.74419 19.2912 5.08599 19.0193 5.20904 18.6522C5.66022 17.3471 6.71296 16.3003 8.02547 15.8517Z" fill="#3B6FBC"/>
<path d="M20.549 19.6714C19.6604 17.7409 17.7053 16.5038 15.5724 16.5038C13.4396 16.5038 11.4845 17.7409 10.5958 19.6714L9.81653 21.3572H21.342L20.549 19.6714Z" fill="#3B6FBC"/>
<path d="M16.4735 14.7508V0.924775C16.4735 0.421763 16.0634 0.013916 15.5575 0.013916C15.0516 0.013916 14.6415 0.421763 14.6415 0.924775V14.7644C14.9423 14.7236 15.243 14.71 15.5575 14.71C15.872 14.6964 16.1727 14.71 16.4735 14.7508Z" fill="#3B6FBC"/>
<path d="M22.1765 23.1659H8.9694L5.96156 29.6371C5.82484 29.9226 5.85218 30.2488 6.01625 30.5071C6.18031 30.7655 6.46743 30.9286 6.78188 30.9286H8.99674C10.2135 30.9286 11.3346 30.4528 12.155 29.6235C13.5768 31.0509 15.3132 30.9286 15.573 30.9286C15.8327 30.9286 17.5554 31.0509 18.9773 29.6235C19.7976 30.4528 20.9187 30.9286 22.1355 30.9286H24.3504C24.6648 30.9286 24.9519 30.7655 25.116 30.5071C25.2801 30.2488 25.3074 29.9226 25.1707 29.6371L22.1765 23.1659Z" fill="#3B6FBC"/>
<path d="M30.4748 3.45343C29.1623 3.0048 28.1095 1.97158 27.6584 0.652877C27.549 0.285814 27.2072 0.013916 26.7834 0.013916C26.3732 0.013916 26.0314 0.285814 25.9083 0.652877C25.4572 1.95799 24.4181 3.0048 23.0919 3.45343C22.7228 3.56219 22.4493 3.91566 22.4493 4.3235C22.4493 4.73135 22.7228 5.07122 23.0919 5.19358C24.4044 5.64221 25.4572 6.67542 25.9083 7.99413C26.0177 8.36119 26.3732 8.63309 26.7834 8.63309C27.1935 8.63309 27.5353 8.36119 27.6584 7.99413C28.1095 6.67542 29.1486 5.62862 30.4748 5.17998C30.8439 5.07122 31.1174 4.71776 31.1174 4.30991C31.1174 3.91566 30.8439 3.56219 30.4748 3.45343Z" fill="#3B6FBC"/>
</svg>
