<svg width="36" height="31" viewBox="0 0 36 31" fill="none" xmlns="http://www.w3.org/2000/svg">
<path d="M30.7613 0H4.52714C2.01206 0 0 2.01206 0 4.52714V26.2729C0 28.775 2.01206 30.8 4.52714 30.8H30.7226C33.2248 30.8 35.2497 28.7879 35.2497 26.2729V4.52714C35.2755 2.01206 33.2248 0 30.7613 0ZM13.7233 2.55377C14.5487 2.55377 15.2194 3.22446 15.2194 4.04992C15.2194 4.87538 14.5487 5.54606 13.7233 5.54606C12.8978 5.54606 12.2271 4.87538 12.2271 4.04992C12.2271 3.22446 12.8978 2.55377 13.7233 2.55377ZM9.50569 2.55377C10.3312 2.55377 11.0018 3.22446 11.0018 4.04992C11.0018 4.87538 10.3312 5.54606 9.50569 5.54606C8.68023 5.54606 8.00955 4.87538 8.00955 4.04992C8.00955 3.22446 8.68023 2.55377 9.50569 2.55377ZM5.3268 2.55377C6.15226 2.55377 6.82295 3.22446 6.82295 4.04992C6.82295 4.87538 6.15226 5.54606 5.3268 5.54606C4.50134 5.54606 3.83065 4.87538 3.83065 4.04992C3.83065 3.22446 4.50134 2.55377 5.3268 2.55377ZM30.7613 28.2849H4.52714C3.37923 28.2849 2.47638 27.3821 2.47638 26.2342V8.22881H32.7734V26.2342H32.8121C32.8121 27.3821 31.9092 28.2849 30.7613 28.2849Z" fill="#BC3B62"/>
</svg>
