<svg width="18" height="16" viewBox="0 0 18 16" fill="none" xmlns="http://www.w3.org/2000/svg">
<path d="M14.5908 4.73954H11.9116V1.77733C11.9116 0.795334 11.1123 0 10.1255 0C9.13862 0 8.33527 0.791276 8.33527 1.77327V3.43698C8.33527 4.35405 7.74398 5.14938 6.86315 5.42125L5.3584 5.88385V15.1113C5.3584 15.1357 5.3584 15.16 5.3584 15.1803C5.88445 15.7038 6.60216 16 7.34434 16H14.5908C16.0711 16 17.27 14.807 17.27 13.334V7.40553C17.27 5.93254 16.0711 4.73954 14.5908 4.73954Z" fill="#E6DCFF"/>
<path d="M2.67919 16H0.893063C0.399636 16 0 15.6023 0 15.1113V5.62817C0 5.13717 0.399636 4.7395 0.893063 4.7395H2.67919C3.17261 4.7395 3.57225 5.13717 3.57225 5.62817V15.1113C3.57225 15.6023 3.17261 16 2.67919 16Z" fill="#E6DCFF"/>
</svg>
