<svg width="17" height="16" viewBox="0 0 17 16" fill="none" xmlns="http://www.w3.org/2000/svg">
<path d="M16.6301 7.11079L9.03902 0.226726C8.70446 -0.0755755 8.20454 -0.0755755 7.86997 0.226726L0.282708 7.11079C0.0173654 7.35187 -0.0710822 7.72688 0.0596665 8.05979C0.190415 8.39653 0.50575 8.61082 0.867232 8.61082H2.07858V15.5064C2.07858 15.7781 2.30162 16 2.57465 16H6.73554C7.00857 16 7.23161 15.7781 7.23161 15.5064V11.3201H9.67738V15.5064C9.67738 15.7781 9.90042 16 10.1735 16H14.3343C14.6074 16 14.8304 15.7781 14.8304 15.5064V8.61082H16.0418C16.4032 8.61082 16.7186 8.39271 16.8493 8.05979C16.9839 7.72305 16.8955 7.35187 16.6301 7.11079Z" fill="#E6DCFF"/>
</svg>
