<svg width="34" height="31" viewBox="0 0 34 31" fill="none" xmlns="http://www.w3.org/2000/svg">
<path d="M25.3326 18.3736V14.2842C22.4888 15.0528 19.2512 15.4733 16.5824 15.4733C13.9136 15.4733 10.676 15.0383 7.83215 14.2842V18.3736C7.83215 18.9102 7.89048 19.4177 7.99257 19.9398C10.5156 20.4183 13.4469 21.2594 16.5824 22.8401C19.7179 21.2594 22.6346 20.4183 25.1722 19.9398C25.2743 19.4322 25.3326 18.9102 25.3326 18.3736ZM15.6198 19.3452C15.6198 19.8818 15.1823 20.3168 14.6427 20.3168C14.1031 20.3168 13.6656 19.8818 13.6656 19.3452H12.6885C12.1489 19.3452 11.7114 18.9102 11.7114 18.3736C11.7114 17.8371 12.1489 17.402 12.6885 17.402H14.6282C15.1678 17.402 15.6053 17.8371 15.6053 18.3736V19.3452H15.6198ZM21.4387 19.3452C21.4387 19.8818 21.0012 20.3168 20.4616 20.3168C19.922 20.3168 19.4845 19.8818 19.4845 19.3452H18.5074C17.9678 19.3452 17.5303 18.9102 17.5303 18.3736C17.5303 17.8371 17.9678 17.402 18.5074 17.402H20.4471C20.9867 17.402 21.4242 17.8371 21.4242 18.3736V19.3452H21.4387Z" fill="#3EBC3B"/>
<path d="M16.582 13.5448C24.0051 13.5448 30.1886 10.7315 30.1886 9.67293C30.1886 9.19438 28.8761 9.19438 28.3656 9.19438C27.4614 9.19438 26.2364 9.26689 24.5301 9.3684C22.3134 9.49891 19.5571 9.67293 16.582 9.67293C13.6069 9.67293 10.8506 9.49891 8.63384 9.3684C6.94213 9.26689 5.71709 9.19438 4.79831 9.19438C4.28788 9.19438 2.97534 9.17988 2.97534 9.67293C2.97534 10.746 9.15885 13.5448 16.582 13.5448Z" fill="#3EBC3B"/>
<path d="M16.582 7.74382C19.4696 7.74382 22.1822 7.5843 24.3551 7.45379C24.4718 7.43929 24.5739 7.43929 24.6906 7.43929L23.8156 3.10333C23.451 1.31964 21.8613 0.0145015 20.0384 0.0145015C18.7987 0.0145015 17.6175 0.623566 16.8883 1.65317C16.5528 2.13173 16.6112 2.13173 16.2612 1.65317C15.5174 0.623566 14.3507 0 13.1111 0C11.2735 0 9.6839 1.29064 9.33389 3.08883L8.45886 7.42479C8.56095 7.42479 8.63386 7.43929 8.73595 7.43929C10.9673 7.5843 13.6944 7.74382 16.582 7.74382Z" fill="#3EBC3B"/>
<path d="M0.977111 30.9314H15.6192V24.5363C9.18774 21.3314 3.48551 21.2589 0.977111 21.2589C0.437513 21.2589 0 21.694 0 22.2305V29.9743C0 30.5109 0.437513 30.9314 0.977111 30.9314ZM4.97305 24.3622C7.77312 24.6813 10.5586 25.4354 13.1108 26.61C13.592 26.8275 13.8108 27.4076 13.5774 27.9006C13.3441 28.3937 12.7608 28.5967 12.2795 28.3647C9.91693 27.277 7.33561 26.5665 4.73971 26.2764C4.20011 26.2184 3.82093 25.7399 3.87927 25.2033C3.95219 24.6813 4.41886 24.2897 4.97305 24.3622Z" fill="#3EBC3B"/>
<path d="M17.5586 30.9314H32.2006C32.7402 30.9314 33.1777 30.4964 33.1777 29.9598V22.2305C33.1777 21.694 32.7402 21.2589 32.2006 21.2589C29.6922 21.2589 23.99 21.3169 17.5586 24.5363V30.9314ZM20.067 26.61C22.6192 25.4354 25.3317 24.6668 28.1464 24.3622C28.686 24.3187 29.1672 24.6813 29.2256 25.2178C29.2839 25.7544 28.9047 26.2329 28.3651 26.2909C25.7692 26.581 23.2608 27.2771 20.8837 28.3792C20.417 28.5967 19.8191 28.4082 19.5857 27.9151C19.367 27.4076 19.5712 26.842 20.067 26.61Z" fill="#3EBC3B"/>
</svg>
