<svg width="21" height="20" viewBox="0 0 21 20" fill="none" xmlns="http://www.w3.org/2000/svg">
<rect width="21" height="20" rx="6" fill="#E6DCFF"/>
<path d="M13.568 13.2034C12.1239 14.6468 10.7035 15.3787 10.5497 15.4814C10.3942 15.3713 9.05687 14.6214 7.63829 13.1914C6.90756 13.2409 6.32812 13.8508 6.32812 14.5939C6.32812 15.3693 6.9589 16.0001 7.73424 16.0001H13.3587C14.134 16.0001 14.7648 15.3693 14.7648 14.5939C14.7648 13.8897 14.2444 13.3048 13.568 13.2034Z" fill="#9152D5"/>
<path d="M10.5632 14.6553C12.6866 13.3854 15.1707 11.0558 15.1398 8.56647C15.1246 7.34452 14.6456 6.19868 13.791 5.34001C12.0131 3.55349 9.12492 3.55335 7.34067 5.33947C6.47935 6.20168 6.00322 7.34895 6.00001 8.56991C5.99371 10.9833 8.56527 13.3708 10.5632 14.6553ZM10.5465 7.16469C11.3218 7.16469 11.9526 7.79549 11.9526 8.57085C11.9526 9.34621 11.3218 9.97701 10.5465 9.97701C9.77114 9.97701 9.14036 9.34621 9.14036 8.57085C9.14036 7.79549 9.77114 7.16469 10.5465 7.16469Z" fill="#9152D5"/>
</svg>
