<svg width="21" height="20" viewBox="0 0 21 20" fill="none" xmlns="http://www.w3.org/2000/svg">
<rect width="21" height="20" rx="6" fill="#E6DCFF"/>
<path d="M9.55535 13.0816V13.8907H11.5305V13.0816C13.3424 12.6863 14.6909 11.2289 14.6909 9.49622V7.89075H13.9008V9.49622C13.9008 11.144 12.3945 12.4845 10.5429 12.4845C8.69142 12.4845 7.1851 11.144 7.1851 9.49622V7.89075H6.39502V9.49622C6.39502 11.2289 7.74345 12.6863 9.55535 13.0816Z" fill="#9152D5"/>
<path d="M10.543 11.7813C11.9589 11.7813 13.1108 10.7561 13.1108 9.49609V6.28516C13.1108 5.02511 11.9589 4 10.543 4C9.12711 4 7.97522 5.02511 7.97522 6.28516V9.49609C7.97522 10.7561 9.12711 11.7813 10.543 11.7813Z" fill="#9152D5"/>
<path d="M13.5058 14.5938H7.58016C6.70747 14.5938 6 15.2234 6 16H15.0859C15.0859 15.2234 14.3785 14.5938 13.5058 14.5938Z" fill="#9152D5"/>
</svg>
