<svg width="16" height="16" viewBox="0 0 16 16" fill="none" xmlns="http://www.w3.org/2000/svg">
<path d="M14.5938 2.5H13.1878V0.937625C13.1878 0.419781 12.7681 0 12.2502 0C11.7324 0 11.3126 0.419781 11.3126 0.937625V1.81472C11.3126 2.29787 11.0023 2.718 10.5405 2.86009L9.75008 3.10331V7.96875C9.75008 7.98116 9.74946 7.99341 9.74915 8.00572C10.0256 8.28219 10.4006 8.4375 10.7916 8.4375H14.5938C15.3705 8.4375 16.0001 7.80791 16.0001 7.03125V3.90625C16.0001 3.12959 15.3705 2.5 14.5938 2.5Z" fill="#4C4C4C"/>
<path d="M8.34375 8.4375H7.40625C7.14737 8.4375 6.9375 8.22762 6.9375 7.96875V2.96875C6.9375 2.70987 7.14737 2.5 7.40625 2.5H8.34375C8.60263 2.5 8.8125 2.70987 8.8125 2.96875V7.96875C8.8125 8.22762 8.60263 8.4375 8.34375 8.4375Z" fill="#4C4C4C"/>
<path d="M10.7915 9.375C10.2773 9.375 9.78797 9.21475 9.37966 8.91859C9.12241 9.19891 8.75331 9.375 8.34375 9.375H7.40625C6.62959 9.375 6 8.74541 6 7.96875V5.53125H0.46875C0.209875 5.53125 0 5.74112 0 6V15.5167C0 15.6816 0.07925 15.84 0.218812 15.9278C0.295531 15.9761 0.38225 16 0.468719 16C0.559656 16 0.650344 15.9736 0.72875 15.9213L2.48569 14.75H12.3438C12.6026 14.75 12.8125 14.5401 12.8125 14.2812V9.375H10.7915ZM2.34375 7.875H5C5.25887 7.875 5.46875 8.08488 5.46875 8.34375C5.46875 8.60262 5.25887 8.8125 5 8.8125H2.34375C2.08488 8.8125 1.875 8.60262 1.875 8.34375C1.875 8.08488 2.08488 7.875 2.34375 7.875ZM10.4688 13.0312H2.34375C2.08488 13.0312 1.875 12.8214 1.875 12.5625C1.875 12.3036 2.08488 12.0938 2.34375 12.0938H10.4688C10.7276 12.0938 10.9375 12.3036 10.9375 12.5625C10.9375 12.8214 10.7276 13.0312 10.4688 13.0312ZM10.4688 10.9219H2.34375C2.08488 10.9219 1.875 10.712 1.875 10.4531C1.875 10.1943 2.08488 9.98438 2.34375 9.98438H10.4688C10.7276 9.98438 10.9375 10.1943 10.9375 10.4531C10.9375 10.712 10.7276 10.9219 10.4688 10.9219Z" fill="#4C4C4C"/>
</svg>
